<svg xmlns="http://www.w3.org/2000/svg" viewBox="0 0 120 120">
  <defs>
    <linearGradient id="tile" x1="0" y1="0" x2="1" y2="1">
      <stop offset="0" stop-color="#6366F1" />
      <stop offset="0.55" stop-color="#4F46E6" />
      <stop offset="1" stop-color="#4338CA" />
    </linearGradient>
    <linearGradient id="edge" x1="0" y1="0" x2="120" y2="100" gradientUnits="userSpaceOnUse">
      <stop offset="0" stop-color="#A5B4FC" />
      <stop offset="1" stop-color="#A78BFA" />
    </linearGradient>
  </defs>
  <rect width="120" height="120" rx="28" fill="url(#tile)" />
  <g transform="translate(13.2 21) scale(0.78)">
    <path d="M 36 70 C 22 70, 12 60, 15 48 C 6 44, 9 30, 21 28 C 18 16, 32 10, 44 17 C 50 9, 66 9, 73 17 C 86 10, 102 16, 101 31 C 110 36, 109 50, 98 53 C 103 63, 95 71, 84 69 C 82 78, 70 79, 65 72 C 58 86, 50 84, 50 73 C 44 73, 39 73, 36 70 Z" stroke="#FFFFFF" stroke-width="1" fill="none" opacity="0.16" stroke-linejoin="round" />
      <line x1="24" y1="68" x2="15" y2="56" stroke="url(#edge)" stroke-width="1.1" opacity="0.82" />
      <line x1="24" y1="68" x2="36" y2="69" stroke="url(#edge)" stroke-width="1.1" opacity="0.82" />
      <line x1="24" y1="68" x2="40" y2="60" stroke="url(#edge)" stroke-width="1.1" opacity="0.82" />
      <line x1="24" y1="68" x2="30" y2="53" stroke="url(#edge)" stroke-width="1.1" opacity="0.82" />
      <line x1="15" y1="56" x2="16" y2="42" stroke="url(#edge)" stroke-width="1.1" opacity="0.82" />
      <line x1="15" y1="56" x2="30" y2="53" stroke="url(#edge)" stroke-width="1.1" opacity="0.82" />
      <line x1="16" y1="42" x2="24" y2="30" stroke="url(#edge)" stroke-width="1.1" opacity="0.82" />
      <line x1="16" y1="42" x2="33" y2="42" stroke="url(#edge)" stroke-width="1.1" opacity="0.82" />
      <line x1="16" y1="42" x2="30" y2="53" stroke="url(#edge)" stroke-width="1.1" opacity="0.82" />
      <line x1="24" y1="30" x2="37" y2="21" stroke="url(#edge)" stroke-width="1.1" opacity="0.82" />
      <line x1="24" y1="30" x2="33" y2="42" stroke="url(#edge)" stroke-width="1.1" opacity="0.82" />
      <line x1="37" y1="21" x2="52" y2="17" stroke="url(#edge)" stroke-width="1.1" opacity="0.82" />
      <line x1="37" y1="21" x2="45" y2="31" stroke="url(#edge)" stroke-width="1.1" opacity="0.82" />
      <line x1="52" y1="17" x2="68" y2="16" stroke="url(#edge)" stroke-width="1.1" opacity="0.82" />
      <line x1="52" y1="17" x2="45" y2="31" stroke="url(#edge)" stroke-width="1.1" opacity="0.82" />
      <line x1="52" y1="17" x2="60" y2="28" stroke="url(#edge)" stroke-width="1.1" opacity="0.82" />
      <line x1="68" y1="16" x2="83" y2="20" stroke="url(#edge)" stroke-width="1.1" opacity="0.82" />
      <line x1="68" y1="16" x2="60" y2="28" stroke="url(#edge)" stroke-width="1.1" opacity="0.82" />
      <line x1="68" y1="16" x2="75" y2="33" stroke="url(#edge)" stroke-width="1.1" opacity="0.82" />
      <line x1="83" y1="20" x2="96" y2="29" stroke="url(#edge)" stroke-width="1.1" opacity="0.82" />
      <line x1="83" y1="20" x2="75" y2="33" stroke="url(#edge)" stroke-width="1.1" opacity="0.82" />
      <line x1="96" y1="29" x2="103" y2="42" stroke="url(#edge)" stroke-width="1.1" opacity="0.82" />
      <line x1="96" y1="29" x2="87" y2="43" stroke="url(#edge)" stroke-width="1.1" opacity="0.82" />
      <line x1="103" y1="42" x2="100" y2="56" stroke="url(#edge)" stroke-width="1.1" opacity="0.82" />
      <line x1="103" y1="42" x2="87" y2="43" stroke="url(#edge)" stroke-width="1.1" opacity="0.82" />
      <line x1="100" y1="56" x2="90" y2="66" stroke="url(#edge)" stroke-width="1.1" opacity="0.82" />
      <line x1="100" y1="56" x2="87" y2="43" stroke="url(#edge)" stroke-width="1.1" opacity="0.82" />
      <line x1="100" y1="56" x2="85" y2="55" stroke="url(#edge)" stroke-width="1.1" opacity="0.82" />
      <line x1="90" y1="66" x2="78" y2="70" stroke="url(#edge)" stroke-width="1.1" opacity="0.82" />
      <line x1="90" y1="66" x2="85" y2="55" stroke="url(#edge)" stroke-width="1.1" opacity="0.82" />
      <line x1="78" y1="70" x2="64" y2="71" stroke="url(#edge)" stroke-width="1.1" opacity="0.82" />
      <line x1="78" y1="70" x2="70" y2="61" stroke="url(#edge)" stroke-width="1.1" opacity="0.82" />
      <line x1="78" y1="70" x2="85" y2="55" stroke="url(#edge)" stroke-width="1.1" opacity="0.82" />
      <line x1="64" y1="71" x2="49" y2="70" stroke="url(#edge)" stroke-width="1.1" opacity="0.82" />
      <line x1="64" y1="71" x2="56" y2="59" stroke="url(#edge)" stroke-width="1.1" opacity="0.82" />
      <line x1="64" y1="71" x2="70" y2="61" stroke="url(#edge)" stroke-width="1.1" opacity="0.82" />
      <line x1="64" y1="71" x2="58" y2="80" stroke="url(#edge)" stroke-width="1.1" opacity="0.82" />
      <line x1="49" y1="70" x2="36" y2="69" stroke="url(#edge)" stroke-width="1.1" opacity="0.82" />
      <line x1="49" y1="70" x2="40" y2="60" stroke="url(#edge)" stroke-width="1.1" opacity="0.82" />
      <line x1="49" y1="70" x2="56" y2="59" stroke="url(#edge)" stroke-width="1.1" opacity="0.82" />
      <line x1="49" y1="70" x2="58" y2="80" stroke="url(#edge)" stroke-width="1.1" opacity="0.82" />
      <line x1="36" y1="69" x2="40" y2="60" stroke="url(#edge)" stroke-width="1.1" opacity="0.82" />
      <line x1="36" y1="69" x2="30" y2="53" stroke="url(#edge)" stroke-width="1.1" opacity="0.82" />
      <line x1="33" y1="42" x2="45" y2="31" stroke="url(#edge)" stroke-width="1.1" opacity="0.82" />
      <line x1="33" y1="42" x2="44" y2="51" stroke="url(#edge)" stroke-width="1.1" opacity="0.82" />
      <line x1="33" y1="42" x2="30" y2="53" stroke="url(#edge)" stroke-width="1.1" opacity="0.82" />
      <line x1="45" y1="31" x2="60" y2="28" stroke="url(#edge)" stroke-width="1.1" opacity="0.82" />
      <line x1="60" y1="28" x2="75" y2="33" stroke="url(#edge)" stroke-width="1.1" opacity="0.82" />
      <line x1="60" y1="28" x2="59" y2="46" stroke="url(#edge)" stroke-width="1.1" opacity="0.82" />
      <line x1="75" y1="33" x2="87" y2="43" stroke="url(#edge)" stroke-width="1.1" opacity="0.82" />
      <line x1="75" y1="33" x2="73" y2="51" stroke="url(#edge)" stroke-width="1.1" opacity="0.82" />
      <line x1="87" y1="43" x2="73" y2="51" stroke="url(#edge)" stroke-width="1.1" opacity="0.82" />
      <line x1="87" y1="43" x2="85" y2="55" stroke="url(#edge)" stroke-width="1.1" opacity="0.82" />
      <line x1="44" y1="51" x2="59" y2="46" stroke="url(#edge)" stroke-width="1.1" opacity="0.82" />
      <line x1="44" y1="51" x2="40" y2="60" stroke="url(#edge)" stroke-width="1.1" opacity="0.82" />
      <line x1="44" y1="51" x2="56" y2="59" stroke="url(#edge)" stroke-width="1.1" opacity="0.82" />
      <line x1="44" y1="51" x2="30" y2="53" stroke="url(#edge)" stroke-width="1.1" opacity="0.82" />
      <line x1="59" y1="46" x2="73" y2="51" stroke="url(#edge)" stroke-width="1.1" opacity="0.82" />
      <line x1="59" y1="46" x2="56" y2="59" stroke="url(#edge)" stroke-width="1.1" opacity="0.82" />
      <line x1="73" y1="51" x2="70" y2="61" stroke="url(#edge)" stroke-width="1.1" opacity="0.82" />
      <line x1="73" y1="51" x2="85" y2="55" stroke="url(#edge)" stroke-width="1.1" opacity="0.82" />
      <line x1="40" y1="60" x2="56" y2="59" stroke="url(#edge)" stroke-width="1.1" opacity="0.82" />
      <line x1="40" y1="60" x2="30" y2="53" stroke="url(#edge)" stroke-width="1.1" opacity="0.82" />
      <line x1="56" y1="59" x2="70" y2="61" stroke="url(#edge)" stroke-width="1.1" opacity="0.82" />
      <line x1="70" y1="61" x2="85" y2="55" stroke="url(#edge)" stroke-width="1.1" opacity="0.82" />
      <line x1="58" y1="80" x2="53" y2="89" stroke="url(#edge)" stroke-width="1.1" opacity="0.82" />
      <circle cx="68" cy="16" r="5.4" fill="#FBBF24" opacity="0.22" />
      <circle cx="103" cy="42" r="5.4" fill="#34D399" opacity="0.22" />
      <circle cx="60" cy="28" r="5.4" fill="#FBBF24" opacity="0.22" />
      <circle cx="87" cy="43" r="5.4" fill="#34D399" opacity="0.22" />
      <circle cx="56" cy="59" r="5.4" fill="#34D399" opacity="0.22" />
      <circle cx="24" cy="68" r="2.2" fill="#E0E7FF" opacity="0.96" />
      <circle cx="15" cy="56" r="2.2" fill="#E0E7FF" opacity="0.96" />
      <circle cx="16" cy="42" r="2.2" fill="#E0E7FF" opacity="0.96" />
      <circle cx="24" cy="30" r="2.2" fill="#E0E7FF" opacity="0.96" />
      <circle cx="37" cy="21" r="2.2" fill="#E0E7FF" opacity="0.96" />
      <circle cx="52" cy="17" r="2.2" fill="#E0E7FF" opacity="0.96" />
      <circle cx="83" cy="20" r="2.2" fill="#E0E7FF" opacity="0.96" />
      <circle cx="96" cy="29" r="2.2" fill="#E0E7FF" opacity="0.96" />
      <circle cx="100" cy="56" r="2.2" fill="#E0E7FF" opacity="0.96" />
      <circle cx="90" cy="66" r="2.2" fill="#E0E7FF" opacity="0.96" />
      <circle cx="78" cy="70" r="2.2" fill="#E0E7FF" opacity="0.96" />
      <circle cx="64" cy="71" r="2.2" fill="#E0E7FF" opacity="0.96" />
      <circle cx="49" cy="70" r="2.2" fill="#E0E7FF" opacity="0.96" />
      <circle cx="36" cy="69" r="2.2" fill="#E0E7FF" opacity="0.96" />
      <circle cx="33" cy="42" r="2.2" fill="#E0E7FF" opacity="0.96" />
      <circle cx="45" cy="31" r="2.2" fill="#E0E7FF" opacity="0.96" />
      <circle cx="75" cy="33" r="2.2" fill="#E0E7FF" opacity="0.96" />
      <circle cx="44" cy="51" r="2.2" fill="#E0E7FF" opacity="0.96" />
      <circle cx="59" cy="46" r="2.2" fill="#E0E7FF" opacity="0.96" />
      <circle cx="73" cy="51" r="2.2" fill="#E0E7FF" opacity="0.96" />
      <circle cx="40" cy="60" r="2.2" fill="#E0E7FF" opacity="0.96" />
      <circle cx="70" cy="61" r="2.2" fill="#E0E7FF" opacity="0.96" />
      <circle cx="85" cy="55" r="2.2" fill="#E0E7FF" opacity="0.96" />
      <circle cx="30" cy="53" r="2.2" fill="#E0E7FF" opacity="0.96" />
      <circle cx="58" cy="80" r="2.2" fill="#E0E7FF" opacity="0.96" />
      <circle cx="53" cy="89" r="2.2" fill="#E0E7FF" opacity="0.96" />
      <circle cx="68" cy="16" r="3.1" fill="#FBBF24" />
      <circle cx="103" cy="42" r="3.1" fill="#34D399" />
      <circle cx="60" cy="28" r="3.1" fill="#FBBF24" />
      <circle cx="87" cy="43" r="3.1" fill="#34D399" />
      <circle cx="56" cy="59" r="3.1" fill="#34D399" />
  </g>
</svg>
